<svg xmlns="http://www.w3.org/2000/svg" width="99" height="61" viewBox="0 0 99 61">
    <g fill="none" fill-rule="evenodd">
        <path fill="#524766" d="M89.438 39.365c.562 1.211 1.666 1.968 3.056 1.968 1.88 0 3.4-1.529 3.4-3.527 0-1.817-1.19-2.56-2.597-3.21l-.717-.333c-.731-.348-1.693-.803-1.693-1.787 0-1.044.832-1.771 1.794-1.771.918 0 1.434.454 1.864 1.241l.962-.65c-.574-1.121-1.593-1.772-2.798-1.772-1.606 0-3.026 1.135-3.026 2.907 0 1.635 1.09 2.316 2.352 2.922l.66.303c1.004.484 1.994.938 1.994 2.27 0 1.288-1.062 2.226-2.224 2.226-.926 0-1.651-.606-1.988-1.442l-1.04.655zm-66.714-23.65v6.472h-2.532l.011-4.581 2.52-1.89zm-2.504-5.2l.02-8.547h2.532l-.023 5.518-2.529 3.029zm7.136 3.26l7.288 8.412H31.03l-5.527-6.465a1.87 1.87 0 0 0 .564-1.395l1.29-.551zM42.172 2.002h2.541v19.683h-2.54V2zm13.433 0h2.541v17.272h5.592v2.41h-8.133V2.002zm17.052 0h2.54v17.272h5.592v2.41h-8.132V2.002zM0 18.107l2.243-1.517c.136.617.319 1.08.554 1.389.62.874 1.532 1.314 2.716 1.314.938 0 1.724-.321 2.346-.961.623-.64.935-1.453.935-2.429 0-.392-.054-.754-.163-1.084a2.793 2.793 0 0 0-.51-.916 4.018 4.018 0 0 0-.88-.77 8.248 8.248 0 0 0-1.256-.67l-1.837-.775C1.602 10.597.345 9.02.345 6.944c0-1.4.525-2.567 1.582-3.51C2.989 2.478 4.308 2 5.895 2c2.083 0 3.715 1.002 4.91 3.023l-2.044 1.23c-.418-.709-.822-1.18-1.219-1.415-.433-.282-.994-.423-1.672-.423-.834 0-1.533.243-2.09.728a2.309 2.309 0 0 0-.845 1.825c0 1.022.736 1.831 2.17 2.429l1.898.787c1.52.623 2.625 1.38 3.32 2.267.69.882 1.036 1.963 1.036 3.251 0 1.73-.566 3.153-1.7 4.279-1.142 1.135-2.558 1.702-4.257 1.702-1.61 0-2.934-.482-3.978-1.444C.814 19.67.339 18.96 0 18.107zm86.924 0l2.243-1.517c.136.617.32 1.08.554 1.389.62.874 1.532 1.314 2.717 1.314.938 0 1.723-.321 2.346-.961.622-.64.934-1.453.934-2.429 0-.392-.054-.754-.163-1.084a2.793 2.793 0 0 0-.51-.916 4.018 4.018 0 0 0-.88-.77 8.248 8.248 0 0 0-1.256-.67l-1.837-.775c-2.546-1.091-3.803-2.669-3.803-4.744 0-1.4.526-2.567 1.582-3.51C89.913 2.478 91.233 2 92.82 2c2.083 0 3.715 1.002 4.911 3.023l-2.044 1.23c-.419-.709-.822-1.18-1.22-1.415-.433-.282-.993-.423-1.671-.423-.835 0-1.534.243-2.09.728a2.309 2.309 0 0 0-.846 1.825c0 1.022.737 1.831 2.171 2.429l1.897.787c1.52.623 2.626 1.38 3.32 2.267.69.882 1.036 1.963 1.036 3.251 0 1.73-.566 3.153-1.7 4.279-1.142 1.135-2.558 1.702-4.256 1.702-1.611 0-2.934-.482-3.979-1.444-.61-.57-1.084-1.281-1.424-2.133zM9.21 38.134H4.59l-1.305 3.2h-1.32l4.993-11.81 4.863 11.81h-1.334l-1.277-3.2zm-.474-1.166L6.93 32.454l-1.85 4.514h3.657zm26.683 1.166h-4.62l-1.305 3.2h-1.32l4.993-11.81 4.862 11.81h-1.334l-1.276-3.2zm-.474-1.166l-1.807-4.514-1.85 4.514h3.657zm17.412-.71l-3.543-6.734h1.391l2.755 5.262 2.754-5.262h1.391l-3.543 6.735v5.074h-1.205V36.26zm12.067-5.513v10.588h-1.205V30.745h-2.611v-1.221h6.455v1.221h-2.64zm8.855-1.221v11.81h-1.205v-11.81h1.205zm12.902 1.12v1.575c-.86-.939-2.051-1.514-3.299-1.514-2.41 0-4.36 2.21-4.36 4.724 0 2.513 1.964 4.723 4.389 4.723 1.219 0 2.41-.605 3.27-1.514v1.575c-.932.712-2.08 1.12-3.227 1.12-3.056 0-5.638-2.619-5.638-5.859 0-3.27 2.54-5.95 5.638-5.95 1.205 0 2.266.363 3.227 1.12zm-70.783 10.2v-11.32l8.435 8.871v-8.41h1.204v11.348l-8.434-8.857v8.368h-1.205zm27.741-11.32v10.588h2.984v1.221h-4.189v-11.81h1.205z"/>
        <path fill="#0D97D4" fill-rule="nonzero" d="M26.33 12.737l-3.132-3.74-1.647 1.928 1.629 1.944a2.008 2.008 0 0 1 2.316.195l.835-.327zm-4.967-.034l-.226-.27-.126-.15-.095-.114-.02-.024c.015.015.051.019.074-.003l-3.822 3.57 1.237 1.476 1.75-1.32c1.254-.946 1.254-.946 2.073-1.527.022-.165.063-.327.125-.482l-.97-1.156zm7.357-9.726l4.2 5.012 2.728-2.292c-.284-.302-.914-1.04-2.14-2.504-.57-.68-1.109-1.328-1.5-1.804a52.73 52.73 0 0 1-.565-.7L28.72 2.977zm-4.258 5.528l2.282 2.723L30 8.925l.626-.444.351-.248.173-.122.09-.065.032-.022-2.068-2.468-.401-.478-.225-.268-.11-.131-.058-.07-3.948 3.896zm-8.769 7.47l2.18 2.604-1.333.73-1.798-2.145.951-1.188zm7.882-.848a.815.815 0 1 1 1.25-1.05.815.815 0 1 1-1.25 1.05zM9.828 58.169v-8.191h4.243v.847H10.74v2.434h3.233v.847H10.74v3.216h3.33v.847H9.829zm6.662-5.106v.62h.022c.358-.49.825-.761 1.454-.761 1.41 0 1.736 1.021 1.736 2.216v3.031h-.868V55.29c0-.825-.065-1.564-1.074-1.564-1.194 0-1.27 1.108-1.27 2.02v2.423h-.868v-5.106h.868zm9.516 0v5.106h-.868v-.706h-.022c-.445.565-1.042.848-1.758.848-1.497 0-2.44-1.271-2.44-2.684 0-1.456.921-2.705 2.451-2.705.695 0 1.324.326 1.747.87h.022v-.729h.868zm-2.54.663c-1.008 0-1.66.88-1.66 1.836 0 1 .587 1.945 1.672 1.945 1.117 0 1.703-.902 1.703-1.934 0-1.021-.64-1.847-1.714-1.847zm4.102 4.443v-8.963h.868v4.585h.022a2.188 2.188 0 0 1 1.747-.87c1.519 0 2.452 1.25 2.452 2.695 0 1.424-.944 2.695-2.441 2.695-.706 0-1.346-.294-1.758-.848h-.022v.706h-.868zm2.485-4.443c-1.01 0-1.66.88-1.66 1.836 0 1 .586 1.945 1.67 1.945 1.118 0 1.704-.902 1.704-1.934 0-1.021-.64-1.847-1.714-1.847zm4.665-4.52v8.963h-.868v-8.963h.868zm2.648 3.857v5.106h-.868v-5.106h.868zm-.434-2.542a.619.619 0 1 1-.618.62c0-.338.281-.62.618-.62zm3.114 2.542v.62h.021c.358-.49.825-.761 1.454-.761 1.41 0 1.736 1.021 1.736 2.216v3.031h-.868V55.29c0-.825-.065-1.564-1.074-1.564-1.193 0-1.27 1.108-1.27 2.02v2.423h-.867v-5.106h.868zm9.46 0v4.857c0 .814 0 1.52-.52 2.194-.477.609-1.215.902-1.975.902-1.42 0-2.473-.902-2.506-2.347h.868c.01.945.694 1.543 1.628 1.543 1.345 0 1.638-.989 1.638-2.14v-.609h-.022a2.258 2.258 0 0 1-1.768.848c-1.487 0-2.43-1.25-2.43-2.673 0-1.434.954-2.716 2.462-2.716.705 0 1.324.315 1.736.87h.022v-.729h.868zm-2.538.663c-1.009 0-1.66.88-1.66 1.836 0 1 .586 1.945 1.67 1.945 1.118 0 1.704-.902 1.704-1.934 0-1.021-.64-1.847-1.714-1.847zm8.604-.663v5.106h-.868v-5.106h.868zm-.434-2.542a.619.619 0 1 1-.618.62c0-.338.282-.62.618-.62zm3.114 2.542v.62h.022c.358-.49.824-.761 1.454-.761 1.41 0 1.736 1.021 1.736 2.216v3.031h-.868V55.29c0-.825-.065-1.564-1.074-1.564-1.194 0-1.27 1.108-1.27 2.02v2.423h-.868v-5.106h.868zm7.867.884l-.727.38c-.12-.272-.386-.38-.7-.38-.304 0-.63.239-.63.565 0 .467.586.64 1.183.89.597.25 1.183.609 1.183 1.467 0 .967-.782 1.663-1.726 1.663-.857 0-1.53-.49-1.8-1.293l.77-.326c.217.478.466.815 1.041.815.467 0 .825-.315.825-.783 0-1.14-2.3-.75-2.3-2.357 0-.858.694-1.445 1.519-1.445.586 0 1.134.271 1.362.804zm21.622 0l-.727.38c-.12-.272-.385-.38-.7-.38-.304 0-.63.239-.63.565 0 .467.586.64 1.183.89.597.25 1.183.609 1.183 1.467 0 .967-.781 1.663-1.725 1.663-.857 0-1.53-.49-1.801-1.293l.77-.326c.217.478.467.815 1.042.815.466 0 .824-.315.824-.783 0-1.14-2.3-.75-2.3-2.357 0-.858.694-1.445 1.519-1.445.586 0 1.134.271 1.362.804zm-19.268-.884v5.106h-.868v-5.106h.868zm-.434-2.542a.619.619 0 1 1-.618.62c0-.338.281-.62.618-.62zm6.846 2.542v4.857c0 .814 0 1.52-.52 2.194-.478.609-1.216.902-1.975.902-1.422 0-2.474-.902-2.507-2.347h.868c.011.945.695 1.543 1.628 1.543 1.345 0 1.638-.989 1.638-2.14v-.609h-.022a2.258 2.258 0 0 1-1.768.848c-1.487 0-2.43-1.25-2.43-2.673 0-1.434.954-2.716 2.462-2.716.706 0 1.324.315 1.736.87h.022v-.729h.868zm-2.539.663c-1.009 0-1.66.88-1.66 1.836 0 1 .586 1.945 1.671 1.945 1.118 0 1.704-.902 1.704-1.934 0-1.021-.64-1.847-1.715-1.847zm4.232-4.52h.868v4.455l.021.021c.359-.488.825-.76 1.454-.76 1.41 0 1.736 1.021 1.736 2.216v3.031h-.868V55.29c0-.825-.065-1.564-1.074-1.564-1.193 0-1.27 1.108-1.27 2.02v2.423h-.867v-8.963zm6.64 4.661v4.302h-.868v-4.302h-.532v-.804h.532v-1.836h.868v1.836h.911v.804h-.911z"/>
    </g>
</svg>
