<svg xmlns="http://www.w3.org/2000/svg" width="99" height="60" viewBox="0 0 99 60">
    <g fill="none" fill-rule="nonzero">
        <path fill="#524766" d="M42.172 20.635h2.541v19.682h-2.54V20.635zM23.916 33.329v2.966a2.788 2.788 0 0 0-1.31 0v-2.966a3.254 3.254 0 0 0 1.31 0zm0-6.362a3.254 3.254 0 0 0-1.31 0v-2.965a2.788 2.788 0 0 0 1.31 0v2.965zm2.515 3.867l2.895 2.432a2.796 2.796 0 0 0-.775 1.061l-2.68-2.251c.268-.364.462-.785.56-1.242zm-.014-1.433a3.236 3.236 0 0 0-.58-1.225l2.692-2.262c.163.418.424.787.755 1.079L26.417 29.4zm29.188-8.766v19.682h8.133v-2.41h-5.592V20.635h-2.54zm17.052 0v19.682h8.132v-2.41h-5.591V20.635h-2.541zM0 36.74c.34.851.814 1.562 1.424 2.133 1.044.962 2.368 1.443 3.978 1.443 1.699 0 3.115-.566 4.258-1.701 1.133-1.126 1.699-2.549 1.699-4.279 0-1.288-.345-2.37-1.036-3.251-.695-.887-1.8-1.644-3.32-2.267l-1.897-.787c-1.435-.598-2.171-1.407-2.171-2.429 0-.732.284-1.345.845-1.825.557-.486 1.256-.728 2.09-.728.678 0 1.239.141 1.672.423.397.235.801.706 1.22 1.414l2.044-1.229c-1.196-2.02-2.828-3.023-4.911-3.023-1.587 0-2.906.477-3.968 1.433-1.057.943-1.582 2.11-1.582 3.51 0 2.075 1.257 3.652 3.803 4.744l1.837.776c.484.212.903.435 1.256.67.358.237.651.493.88.769.23.278.4.584.51.916.109.33.163.692.163 1.084 0 .976-.312 1.788-.935 2.429-.622.64-1.408.961-2.346.961-1.184 0-2.096-.44-2.716-1.314-.235-.31-.418-.772-.554-1.39L0 36.742zm2.948-25.947c.562 1.21 1.667 1.968 3.057 1.968 1.879 0 3.4-1.53 3.4-3.528 0-1.817-1.191-2.559-2.597-3.21l-.717-.333c-.732-.348-1.693-.802-1.693-1.786 0-1.045.832-1.772 1.793-1.772.918 0 1.435.455 1.865 1.242l.961-.651C8.443 1.604 7.425.952 6.22.952c-1.607 0-3.027 1.136-3.027 2.907 0 1.636 1.09 2.317 2.353 2.922l.66.303C7.21 7.57 8.2 8.023 8.2 9.355c0 1.287-1.062 2.226-2.224 2.226-.926 0-1.652-.606-1.988-1.442l-1.04.655zM86.924 36.74l2.243-1.517c.136.617.32 1.08.554 1.389.62.874 1.532 1.314 2.717 1.314.938 0 1.723-.321 2.346-.961.622-.64.934-1.453.934-2.43 0-.391-.054-.753-.163-1.083a2.793 2.793 0 0 0-.51-.916 4.018 4.018 0 0 0-.88-.77 8.248 8.248 0 0 0-1.256-.67l-1.837-.775c-2.546-1.092-3.803-2.669-3.803-4.744 0-1.4.526-2.567 1.582-3.51 1.062-.956 2.382-1.433 3.968-1.433 2.083 0 3.715 1.002 4.911 3.023l-2.044 1.23c-.419-.709-.822-1.18-1.22-1.415-.433-.282-.993-.423-1.671-.423-.835 0-1.534.242-2.09.728a2.309 2.309 0 0 0-.846 1.825c0 1.022.737 1.83 2.171 2.429l1.897.787c1.52.623 2.626 1.38 3.32 2.267.69.881 1.036 1.963 1.036 3.251 0 1.73-.566 3.153-1.7 4.279-1.142 1.135-2.558 1.701-4.256 1.701-1.611 0-2.934-.48-3.979-1.443-.61-.57-1.084-1.282-1.424-2.133zM69.784 9.563h-4.702l-1.329 3.199H62.41L67.49.952l4.95 11.81h-1.358l-1.3-3.2zm-.482-1.166l-1.84-4.515-1.883 4.515h3.723zm-25.73 4.365V.952h5.762v1.152H44.81V6.09h4.391V7.24h-4.39v4.37h4.523v1.15h-5.762zM26.251 2.104v10.658h-1.238V2.104H22.33V.952h6.631v1.152h-2.711zM83.54 12.32L85.798.952l4.042 9.029L93.897.952l2.257 11.368h-1.269l-1.43-7.274h-.03l-3.585 7.716-3.57-7.716h-.03l-1.43 7.274h-1.27zm-6.225-4.15a.983.983 0 1 1 .001-1.968.983.983 0 0 1 0 1.967zm-21 0a.983.983 0 1 1 .002-1.968.983.983 0 0 1-.002 1.967zm-21.59 0a.983.983 0 1 1 .002-1.968.983.983 0 0 1-.001 1.967zm-18.673 0a.983.983 0 1 1 .001-1.968.983.983 0 0 1-.001 1.967z"/>
        <path fill="#F16A4D" d="M31.123 26.54a1.64 1.64 0 0 1-1.638-1.64 1.64 1.64 0 1 1 1.638 1.64zm0 7.217a1.64 1.64 0 0 1 1.638 1.64 1.64 1.64 0 1 1-1.638-1.64zM23.26 22.93a1.64 1.64 0 0 1-1.638-1.64 1.64 1.64 0 1 1 1.638 1.64zm0 8.857a1.64 1.64 0 0 1-1.638-1.64 1.64 1.64 0 1 1 1.638 1.64zm0 5.577a1.64 1.64 0 0 1 1.638 1.64 1.64 1.64 0 1 1-1.638-1.64zM0 57.154v-8.192h4.242v.847H.912v2.434h3.233v.847H.91v3.216h3.331v.848H0zm6.662-5.107v.62h.022c.358-.49.824-.76 1.454-.76 1.41 0 1.736 1.02 1.736 2.215v3.032h-.868v-2.88c0-.825-.066-1.564-1.075-1.564-1.193 0-1.27 1.108-1.27 2.02v2.424h-.867v-5.107h.868zm9.515 0v5.107h-.868v-.707h-.021c-.445.565-1.042.848-1.758.848-1.497 0-2.441-1.271-2.441-2.684 0-1.456.922-2.705 2.452-2.705.694 0 1.324.326 1.747.87h.021v-.729h.868zm-2.539.663c-1.009 0-1.66.88-1.66 1.836 0 1 .586 1.945 1.671 1.945 1.118 0 1.704-.902 1.704-1.934 0-1.021-.64-1.847-1.715-1.847zm4.102 4.444V48.19h.868v4.585h.022a2.188 2.188 0 0 1 1.746-.869c1.52 0 2.452 1.25 2.452 2.694 0 1.424-.943 2.695-2.44 2.695-.706 0-1.346-.294-1.758-.848h-.022v.707h-.868zm2.484-4.444c-1.009 0-1.66.88-1.66 1.836 0 1 .586 1.945 1.671 1.945 1.118 0 1.704-.902 1.704-1.934 0-1.021-.64-1.847-1.715-1.847zm4.666-4.52v8.964h-.868V48.19h.868zm2.647 3.857v5.107h-.868v-5.107h.868zm-.434-2.542a.619.619 0 1 1-.618.62c0-.337.282-.62.618-.62zm3.114 2.542v.62h.022c.358-.49.825-.76 1.454-.76 1.41 0 1.736 1.02 1.736 2.215v3.032h-.868v-2.88c0-.825-.065-1.564-1.074-1.564-1.194 0-1.27 1.108-1.27 2.02v2.424h-.868v-5.107h.868zm9.462 0v4.857c0 .814 0 1.52-.521 2.194-.478.609-1.215.902-1.975.902-1.421 0-2.474-.902-2.506-2.347h.868c.01.946.694 1.543 1.627 1.543 1.346 0 1.639-.989 1.639-2.14v-.609h-.022a2.258 2.258 0 0 1-1.769.848c-1.486 0-2.43-1.25-2.43-2.673 0-1.434.955-2.716 2.463-2.716.705 0 1.324.315 1.736.87h.022v-.729h.868zm-2.54.663c-1.008 0-1.66.88-1.66 1.836 0 1 .587 1.945 1.672 1.945 1.117 0 1.703-.902 1.703-1.934 0-1.021-.64-1.847-1.714-1.847zm10.368 0l-.727.38c-.119-.271-.385-.38-.7-.38-.304 0-.63.24-.63.565 0 .467.587.641 1.183.89.597.25 1.183.61 1.183 1.468 0 .966-.781 1.662-1.725 1.662-.857 0-1.53-.49-1.801-1.293l.77-.326c.217.478.467.815 1.042.815.466 0 .824-.315.824-.782 0-1.141-2.3-.75-2.3-2.358 0-.858.695-1.445 1.52-1.445.585 0 1.134.272 1.361.804zm3.76 4.585a2.667 2.667 0 0 1-2.68-2.684c0-1.499 1.182-2.705 2.68-2.705 1.497 0 2.68 1.206 2.68 2.705 0 1.5-1.194 2.684-2.68 2.684zm0-4.585c-1.075 0-1.813.858-1.813 1.89 0 1.043.738 1.89 1.812 1.89 1.075 0 1.812-.847 1.812-1.89 0-1.032-.737-1.89-1.812-1.89zm7.66-.293v1.151h-.022c-.402-.51-.9-.858-1.584-.858-1.053 0-1.801.87-1.801 1.89 0 1.01.694 1.89 1.757 1.89.727 0 1.237-.325 1.66-.88h.022v1.163c-.499.337-1.009.522-1.617.522-1.54 0-2.712-1.152-2.712-2.695 0-1.52 1.226-2.694 2.723-2.694.554 0 1.118.185 1.574.51zm2.408-.37v5.107h-.868v-5.107h.868zm-.434-2.542a.619.619 0 1 1-.618.62c0-.337.282-.62.618-.62zm6.9 2.542v5.107h-.867v-.707h-.022c-.445.565-1.041.848-1.758.848-1.497 0-2.44-1.271-2.44-2.684 0-1.456.921-2.705 2.451-2.705.695 0 1.324.326 1.747.87h.022v-.729h.868zm-2.538.663c-1.01 0-1.66.88-1.66 1.836 0 1 .586 1.945 1.67 1.945 1.118 0 1.704-.902 1.704-1.934 0-1.021-.64-1.847-1.714-1.847zm4.991-4.52v8.964h-.868V48.19h.868zm9.559 3.857v4.857c0 .814 0 1.52-.52 2.194-.478.609-1.216.902-1.976.902-1.421 0-2.473-.902-2.506-2.347h.868c.01.946.694 1.543 1.628 1.543 1.345 0 1.638-.989 1.638-2.14v-.609h-.022a2.258 2.258 0 0 1-1.768.848c-1.487 0-2.43-1.25-2.43-2.673 0-1.434.954-2.716 2.462-2.716.705 0 1.324.315 1.736.87h.022v-.729h.868zm-2.539.663c-1.01 0-1.66.88-1.66 1.836 0 1 .586 1.945 1.67 1.945 1.118 0 1.704-.902 1.704-1.934 0-1.021-.64-1.847-1.714-1.847zm6.456 4.585a2.667 2.667 0 0 1-2.68-2.684c0-1.499 1.182-2.705 2.68-2.705 1.497 0 2.68 1.206 2.68 2.705 0 1.5-1.194 2.684-2.68 2.684zm0-4.585c-1.074 0-1.812.858-1.812 1.89 0 1.043.738 1.89 1.812 1.89s1.812-.847 1.812-1.89c0-1.032-.738-1.89-1.812-1.89zm6.097 4.585a2.667 2.667 0 0 1-2.68-2.684c0-1.499 1.183-2.705 2.68-2.705 1.498 0 2.68 1.206 2.68 2.705 0 1.5-1.193 2.684-2.68 2.684zm0-4.585c-1.074 0-1.811.858-1.811 1.89 0 1.043.737 1.89 1.811 1.89 1.075 0 1.812-.847 1.812-1.89 0-1.032-.737-1.89-1.812-1.89zm7.66 4.444v-.707h-.021c-.423.554-1.063.848-1.758.848-1.497 0-2.441-1.271-2.441-2.684 0-1.456.922-2.705 2.452-2.705.684 0 1.335.326 1.747.87h.022V48.19h.868v8.964h-.868zm-1.67-4.444c-1.01 0-1.66.88-1.66 1.836 0 1 .586 1.945 1.67 1.945 1.118 0 1.704-.902 1.704-1.934 0-1.021-.64-1.847-1.714-1.847z"/>
    </g>
</svg>
