<?xml version="1.0" encoding="utf-8"?>
<!-- Generator: Adobe Illustrator 15.0.0, SVG Export Plug-In . SVG Version: 6.00 Build 0)  -->
<!DOCTYPE svg PUBLIC "-//W3C//DTD SVG 1.1//EN" "http://www.w3.org/Graphics/SVG/1.1/DTD/svg11.dtd">
<svg version="1.1" id="Layer_1" xmlns="http://www.w3.org/2000/svg" xmlns:xlink="http://www.w3.org/1999/xlink" x="0px" y="0px"
	 width="1000px" height="400px" viewBox="0 0 1000 400" enable-background="new 0 0 1000 400" xml:space="preserve">
<g>
	<defs>
		<rect id="SVGID_1_" x="-54.966" y="-42.707" width="1076.486" height="486.631"/>
	</defs>
	<clipPath id="SVGID_2_">
		<use xlink:href="#SVGID_1_"  overflow="visible"/>
	</clipPath>
	<path clip-path="url(#SVGID_2_)" fill="#1197D4" d="M103.52,102.574c1.496,0.25,9.232,1.246,9.232,4.244
		c0,1.995-2.994,2.745-4.491,2.994c-5.739,1.245-17.468,1.747-23.208,1.747c-7.985,0-12.726-5.243-12.726-13.477
		c0-12.476,14.224-18.215,23.956-21.959c15.222-5.988,32.689-7.486,48.911-7.486c22.457,0,50.656,2.246,50.656,31.194
		c0,9.234-6.986,20.212-14.972,25.451c-8.484,5.241-19.963,8.234-29.696,10.231l-37.682,8.235v0.5
		c19.715,3.492,49.659,5.738,51.656,33.188c1.247,16.719-27.699,54.149-91.332,54.149c-33.688,0-44.918-13.225-44.918-20.212
		c0-6.237,15.471-24.206,21.709-24.206c1.748,0,3.744,1,3.744,2.998c0,0.996-3.744,5.488-5.739,7.485
		c8.235,3.243,15.222,5.74,24.205,5.74c36.683,0,74.114-21.213,74.114-29.944c-0.249-13.727-37.182-14.725-46.415-14.725
		c-8.485,0-13.974,0.499-22.208,1.997c-1.997,0.499-5.241,0.997-7.237,0.997c-3.245,0-4.244-2.246-3.743-5.238
		c2.247-15.473,8.733-24.706,27.2-25.955c13.975-0.998,83.098-12.728,83.098-29.695c0-10.731-18.717-10.231-25.704-10.231
		c-18.465,0-36.433,3.994-53.651,10.481v0.497L103.52,102.574z"/>
	<path clip-path="url(#SVGID_2_)" fill="#1197D4" d="M247.751,132.02l0.498,0.498c9.982-4.49,20.212-10.479,31.694-10.479
		c18.466,0,29.943,15.47,29.943,33.187c0,40.428-53.402,77.11-70.37,77.11c-13.724,0-43.421-19.464-43.421-50.906
		c0-43.672,47.663-83.846,81.85-104.81c12.227-7.484,14.722-8.732,28.449-8.732c2.244,0,19.962-1.25,19.962,3.242
		c0,2.496-3.496,4.493-5.24,5.241c-11.979,5.491-29.197,17.219-39.177,25.954L247.751,132.02z M238.767,164.461
		c-10.729,9.481-14.474,12.476-14.474,26.951c0,3.993,0,16.719,6.239,15.717c17.966-2.992,53.401-27.199,54.15-57.391
		c0-5.241-0.5-9.482-7.237-9.482C266.716,140.256,246.753,157.474,238.767,164.461"/>
	<path clip-path="url(#SVGID_2_)" fill-rule="evenodd" clip-rule="evenodd" fill="#FAA41A" d="M516.329,86.991
		c-20.563,0.072-36.643-15.62-36.959-36.071c-0.325-20.943,15.976-37.685,36.712-37.704c20.545-0.022,37.547,17.069,37.297,37.492
		C553.135,70.73,536.602,86.918,516.329,86.991 M537.061,50.901c0.316-11.666-8.646-21.146-20.26-21.435
		c-11.614-0.286-21.318,8.723-21.707,20.156c-0.383,11.143,9.184,21.323,20.422,21.731
		C526.701,71.766,536.758,62.219,537.061,50.901"/>
	<path clip-path="url(#SVGID_2_)" fill="#1197D4" d="M494.307,179.947c0.295-0.752,0.594-1.505,0.865-2.272
		c0.43-1.204,0.838-2.42,1.21-3.648c0.374-1.229,0.711-2.465,1.025-3.709c0.194-0.772,0.364-1.552,0.536-2.326
		c0.089-0.411,0.189-0.817,0.27-1.23c8.424-40.77-15.546-82.113-56.148-94.444c-39.437-11.98-81.054,7.522-97.776,43.999
		c-0.042,0.09-0.084,0.186-0.126,0.281c-0.435,0.963-0.865,1.933-1.269,2.923c-0.188,0.462-0.36,0.931-0.542,1.395
		c-0.261,0.678-0.533,1.356-0.778,2.048c-0.434,1.213-0.843,2.435-1.219,3.67c-0.374,1.232-0.713,2.473-1.027,3.722
		c-0.181,0.713-0.332,1.425-0.493,2.135c-0.108,0.486-0.224,0.97-0.323,1.455c-0.213,1.04-0.396,2.072-0.567,3.108
		c-0.019,0.111-0.04,0.218-0.058,0.33c-6.4,39.616,17.337,78.975,56.784,90.957c40.605,12.334,83.525-8.695,99.198-47.267
		C494.023,180.7,494.162,180.323,494.307,179.947"/>
	<path clip-path="url(#SVGID_2_)" fill="#1197D4" d="M442.064,72.317c-39.437-11.98-81.054,7.522-97.776,43.999
		c-0.042,0.09-0.084,0.186-0.126,0.281c-0.435,0.963-0.865,1.933-1.269,2.923c-0.188,0.462-0.36,0.931-0.542,1.395
		c-0.261,0.678-0.533,1.356-0.778,2.048c-0.434,1.213-0.843,2.435-1.219,3.67c-0.374,1.232-0.713,2.473-1.027,3.722
		c-0.181,0.713-0.332,1.425-0.493,2.135c-0.108,0.486-0.224,0.97-0.323,1.455c-0.213,1.04-0.396,2.072-0.567,3.108
		c-0.019,0.11-0.04,0.218-0.058,0.33c-6.4,39.616,17.337,78.975,56.784,90.957"/>
	<path clip-path="url(#SVGID_2_)" fill="#C4E9F8" d="M472.283,201.51c-0.428,0.449-0.855,0.899-1.294,1.338
		c-0.398,0.398-0.807,0.785-1.215,1.172c-0.446,0.429-0.892,0.857-1.35,1.269c-0.414,0.38-0.844,0.75-1.268,1.117
		c-0.467,0.401-0.932,0.806-1.408,1.198c-0.434,0.359-0.876,0.709-1.317,1.055c-0.482,0.378-0.965,0.757-1.456,1.123
		c-0.452,0.339-0.91,0.666-1.37,0.994c-0.497,0.355-0.998,0.707-1.503,1.049c-0.466,0.316-0.938,0.627-1.41,0.927
		c-0.515,0.335-1.032,0.665-1.555,0.979c-0.479,0.295-0.96,0.578-1.442,0.857c-0.535,0.312-1.068,0.615-1.607,0.91
		c-0.49,0.27-0.981,0.527-1.477,0.785c-0.547,0.285-1.098,0.561-1.653,0.834c-0.5,0.242-1.001,0.48-1.506,0.717
		c-0.562,0.258-1.127,0.508-1.7,0.754c-0.507,0.221-1.019,0.434-1.532,0.643c-0.574,0.234-1.156,0.457-1.744,0.68
		c-0.512,0.195-1.028,0.385-1.547,0.564c-0.593,0.209-1.188,0.408-1.789,0.604c-0.52,0.17-1.041,0.334-1.563,0.488
		c-0.607,0.186-1.221,0.355-1.833,0.52c-0.524,0.143-1.045,0.285-1.574,0.416c-0.621,0.152-1.249,0.295-1.875,0.432
		c-0.528,0.119-1.053,0.236-1.581,0.342c-0.636,0.121-1.278,0.236-1.917,0.346c-0.526,0.088-1.054,0.184-1.582,0.26
		c-0.652,0.098-1.307,0.178-1.961,0.26c-0.524,0.064-1.046,0.129-1.575,0.182c-0.668,0.068-1.334,0.115-2.005,0.166
		c-0.519,0.035-1.041,0.08-1.566,0.107c-0.122,0.004-0.244,0.004-0.367,0.01c11.217-5.971,22.021-17.006,30.642-31.495l21.592,6.559
		c-0.181,0.201-0.35,0.408-0.533,0.608C473.064,200.695,472.672,201.101,472.283,201.51"/>
	<path clip-path="url(#SVGID_2_)" fill="#C4E9F8" d="M464.027,91.654c0.529,0.415,1.057,0.823,1.575,1.252
		c0.411,0.333,0.806,0.683,1.206,1.029c0.498,0.43,0.999,0.862,1.486,1.306c0.395,0.357,0.783,0.727,1.168,1.096
		c0.472,0.445,0.943,0.893,1.401,1.353c0.381,0.38,0.752,0.771,1.127,1.161c0.441,0.465,0.885,0.931,1.316,1.405
		c0.365,0.403,0.721,0.807,1.076,1.222c0.418,0.477,0.833,0.958,1.234,1.45c0.348,0.417,0.689,0.846,1.027,1.278
		c0.393,0.493,0.777,0.986,1.154,1.492c0.329,0.441,0.652,0.884,0.969,1.332c0.367,0.506,0.725,1.021,1.071,1.534
		c0.312,0.453,0.616,0.92,0.917,1.384c0.338,0.521,0.67,1.045,0.992,1.576c0.291,0.471,0.574,0.951,0.854,1.429
		c0.309,0.533,0.614,1.072,0.91,1.612c0.271,0.491,0.534,0.979,0.79,1.475c0.285,0.544,0.559,1.093,0.832,1.645
		c0.243,0.505,0.487,1.007,0.721,1.519c0.258,0.555,0.506,1.114,0.748,1.679c0.225,0.512,0.443,1.034,0.654,1.557
		c0.23,0.562,0.451,1.133,0.667,1.707c0.2,0.527,0.397,1.054,0.585,1.589c0.204,0.577,0.396,1.157,0.584,1.74
		c0.174,0.534,0.349,1.069,0.51,1.608c0.176,0.59,0.34,1.185,0.503,1.779c0.146,0.543,0.3,1.088,0.431,1.634
		c0.152,0.6,0.284,1.203,0.418,1.803c0.123,0.552,0.248,1.1,0.359,1.652c0.121,0.607,0.223,1.221,0.33,1.832
		c0.098,0.554,0.196,1.11,0.278,1.67c0.04,0.259,0.068,0.519,0.103,0.782l-21.589-6.557c0.893-16.829-1.95-31.999-7.946-43.203
		c0.099,0.075,0.2,0.144,0.299,0.218C463.207,91.008,463.615,91.335,464.027,91.654"/>
	<path clip-path="url(#SVGID_2_)" fill="#C4E9F8" d="M458.067,162.389c-2.427,7.992-5.511,15.443-9.055,22.208l-34.157-10.375
		l13.887-45.714l34.156,10.374C462.082,146.478,460.497,154.392,458.067,162.389"/>
	<path clip-path="url(#SVGID_2_)" fill="#C4E9F8" d="M445.402,190.99c-12.723,20.895-29.955,33.418-45.132,31.25l12.504-41.161
		L445.402,190.99z"/>
	<path clip-path="url(#SVGID_2_)" fill="#C4E9F8" d="M430.827,121.649l12.498-41.147c13.819,6.637,21.171,26.624,20.126,51.058
		L430.827,121.649z"/>
	<path clip-path="url(#SVGID_2_)" fill="#C4E9F8" d="M488.462,175.15c-0.191,0.532-0.394,1.059-0.595,1.589
		c-0.168,0.447-0.343,0.888-0.517,1.33c-0.315,0.772-0.639,1.549-0.979,2.316c-0.014,0.034-0.027,0.064-0.042,0.095
		c-2.054,4.586-4.592,8.979-7.595,13.147l-22.792-6.924c3.521-6.831,6.571-14.283,8.985-22.23
		c2.416-7.952,4.028-15.849,4.899-23.484l22.794,6.924c0.179,5.114-0.155,10.168-0.998,15.113c-0.01,0.061-0.018,0.121-0.031,0.181
		c-0.139,0.812-0.298,1.62-0.467,2.427c-0.102,0.472-0.204,0.949-0.318,1.424c-0.123,0.543-0.244,1.087-0.382,1.631
		c-0.28,1.085-0.571,2.171-0.9,3.255C489.195,173.026,488.833,174.091,488.462,175.15"/>
	<path clip-path="url(#SVGID_2_)" fill="#FFFFFF" d="M345.086,137.797c0.027-0.155,0.052-0.312,0.08-0.469
		c0.131-0.752,0.277-1.499,0.432-2.244c0.11-0.517,0.225-1.035,0.345-1.554c0.122-0.515,0.237-1.029,0.366-1.54
		c0.281-1.092,0.574-2.186,0.905-3.275c0.331-1.087,0.694-2.159,1.07-3.226c0.178-0.496,0.365-0.987,0.551-1.475
		c0.189-0.505,0.386-1.006,0.584-1.503c0.285-0.704,0.579-1.407,0.888-2.101c0.064-0.148,0.13-0.293,0.195-0.437
		c2.042-4.527,4.543-8.858,7.498-12.954l22.786,6.921c-3.527,6.83-6.577,14.29-8.993,22.241c-2.415,7.948-4.025,15.835-4.898,23.473
		l-22.796-6.924C343.93,147.677,344.264,142.686,345.086,137.797"/>
	<path clip-path="url(#SVGID_2_)" fill="#FFFFFF" d="M378.65,138.265c2.429-7.997,5.517-15.455,9.063-22.22l34.168,10.378
		l-13.886,45.715l-34.173-10.38C374.642,154.165,376.222,146.258,378.65,138.265"/>
	<path clip-path="url(#SVGID_2_)" fill="#FFFFFF" d="M436.466,78.417l-12.5,41.148l-32.642-9.916
		C404.05,88.763,421.283,76.246,436.466,78.417"/>
	<path clip-path="url(#SVGID_2_)" fill="#FFFFFF" d="M405.913,178.995l-12.503,41.161c-13.831-6.643-21.188-26.633-20.143-51.078
		L405.913,178.995z"/>
	<path clip-path="url(#SVGID_2_)" fill="#FFFFFF" d="M414.974,76.056c-11.213,5.972-22.01,16.999-30.632,31.473l-21.57-6.551
		C376.032,86.087,394.905,76.99,414.974,76.056"/>
	<path clip-path="url(#SVGID_2_)" fill="#FFFFFF" d="M344.712,160.406l21.571,6.553c-0.89,16.833,1.954,32.004,7.952,43.21
		C358.072,198.226,347.446,180.164,344.712,160.406"/>
	<path clip-path="url(#SVGID_2_)" fill="#404040" d="M757.434,131.552c0,0.93-0.117,2.033-0.348,3.309
		c-0.232,1.277-0.561,2.572-0.988,3.885c-0.426,1.317-0.889,2.572-1.391,3.771c-0.5,1.198-1.021,2.145-1.564,2.842
		c-0.467,0.619-1.143,1.451-2.029,2.494c-0.891,1.045-1.877,2.186-2.959,3.424c-1.082,1.239-2.264,2.532-3.539,3.885
		c-1.279,1.354-2.613,2.65-4.004,3.885c-4.797,4.41-9.492,8.684-14.096,12.82c-4.602,4.139-9.34,7.793-14.213,10.964
		s-9.957,5.704-15.256,7.598c-5.301,1.895-11.041,2.805-17.227,2.728c-2.863,0-5.744-0.521-8.645-1.567
		c-2.902-1.042-5.627-2.532-8.18-4.467c-2.551-1.933-4.758-4.254-6.613-6.961c-1.855-2.707-3.17-5.683-3.941-8.931
		c-2.246,2.321-4.605,4.737-7.08,7.249c-2.477,2.514-5.049,5.049-7.715,7.601c-2.668,2.552-5.432,5.029-8.295,7.426
		c-2.863,2.396-5.801,4.601-8.816,6.612c-1.701,1.083-3.732,2.242-6.092,3.483c-2.357,1.236-4.832,2.377-7.424,3.42
		c-2.594,1.043-5.184,1.895-7.773,2.553c-2.594,0.656-4.932,0.984-7.018,0.984c-3.174,0-5.9-0.984-8.184-2.957
		c-2.279-1.971-4.176-4.387-5.684-7.25c-1.51-2.863-2.629-5.919-3.365-9.168c-0.734-3.249-1.1-6.148-1.1-8.701
		c0-5.103,0.734-10.325,2.203-15.662c1.469-5.335,3.385-10.536,5.744-15.603c2.357-5.065,4.988-9.881,7.889-14.444
		c2.9-4.562,5.742-8.623,8.527-12.183c2.938-3.712,6.42-7.404,10.441-11.08c4.02-3.675,8.199-6.961,12.531-9.862
		c4.332-2.9,8.586-5.238,12.762-7.019c4.176-1.779,7.889-2.669,11.139-2.669h5.16c1.816,0,3.613,0.098,5.395,0.291
		c1.779,0.196,3.52,0.504,5.221,0.93c1.699,0.427,3.248,1.063,4.641,1.913c0.697,0.467,1.51,1.356,2.436,2.67
		c0.93,1.313,1.801,2.782,2.613,4.406c0.812,1.625,1.486,3.25,2.027,4.874c0.543,1.624,0.812,2.9,0.812,3.828
		c0,2.551-0.582,5.956-1.74,10.209c-1.238,5.337-2.379,10.19-3.42,14.559c-1.047,4.373-1.568,8.876-1.568,13.517
		c0,2.633,0.424,5.319,1.275,8.064c0.85,2.748,2.068,5.242,3.656,7.482c1.584,2.244,3.52,4.082,5.801,5.51
		c2.281,1.432,4.854,2.146,7.715,2.146c4.719,0,9.551-0.986,14.502-2.959c4.949-1.97,9.957-4.676,15.023-8.118
		c5.066-3.442,10.111-7.425,15.141-11.95c5.027-4.525,9.977-9.34,14.85-14.447c0.387-0.461,1.062-1.253,2.031-2.376
		c0.967-1.12,1.973-2.241,3.016-3.364c1.043-1.124,2.068-2.129,3.072-3.019c1.006-0.887,1.74-1.333,2.207-1.333
		C756.621,126.797,757.434,128.384,757.434,131.552 M654.182,121.924c0-1.314-0.078-2.938-0.234-4.873
		c-0.154-1.933-0.656-3.517-1.506-4.755c-0.854-1.239-1.898-1.837-3.137-1.797c-1.238,0.04-2.475,0.057-3.709,0.057
		c-2.707,0-5.32,0.426-7.832,1.276c-2.514,0.853-4.971,2.031-7.367,3.54c-2.398,1.509-4.701,3.249-6.904,5.219
		c-2.205,1.973-4.352,4.042-6.436,6.207c-1.781,1.781-3.658,3.983-5.629,6.613c-1.973,2.633-3.904,5.513-5.801,8.643
		c-1.895,3.134-3.732,6.42-5.512,9.862c-1.781,3.441-3.328,6.846-4.641,10.21c-1.314,3.364-2.359,6.613-3.131,9.746
		c-0.773,3.133-1.16,5.974-1.16,8.525c0,0.775,0.094,1.8,0.287,3.076c0.193,1.277,0.504,2.515,0.932,3.713
		c0.426,1.198,1.004,2.224,1.738,3.073c0.734,0.853,1.645,1.276,2.727,1.276c3.559,0,8.006-1.121,13.342-3.365
		c7.27-3.093,13.865-7.33,19.781-12.704s10.965-11.581,15.143-18.62C651.164,145.942,654.182,134.3,654.182,121.924"/>
	<path clip-path="url(#SVGID_2_)" fill="#404040" d="M867.137,110.208c0,1.394-0.193,2.592-0.578,3.597
		c-0.389,1.005-0.93,1.855-1.625,2.552c-0.699,0.696-1.51,1.333-2.438,1.912c-0.928,0.582-1.896,1.141-2.9,1.682
		c-2.551,1.164-5.588,2.131-9.107,2.902c-3.52,0.772-7.156,1.45-10.906,2.028c-3.75,0.582-7.463,1.083-11.139,1.509
		c-3.676,0.427-7.018,0.871-10.033,1.333c-5.645,0.854-10.633,1.53-14.967,2.031c-4.33,0.503-8.084,0.988-11.254,1.451
		c-3.172,0.464-5.801,0.966-7.891,1.507c-2.088,0.542-3.748,1.316-4.984,2.321c-1.625,7.04-3.309,14.173-5.049,21.405
		c-1.74,7.232-3.229,14.018-4.467,20.36c-0.23,1.083-0.482,2.227-0.752,3.424c-0.271,1.199-0.561,2.457-0.869,3.77
		c-0.543,2.708-0.969,5.084-1.279,7.135c-0.311,2.051-0.463,4.003-0.463,5.858c0,2.632,0.27,4.757,0.811,6.382
		c0.309,0.852,0.656,1.952,1.043,3.307c0.387,1.354,0.891,2.918,1.51,4.696c1.238,3.636,1.857,6.224,1.857,7.774
		c0,2.475-1.006,5.141-3.016,8.004c-1.936,2.863-4.102,4.293-6.498,4.293c-2.551,0-5.182-1.934-7.889-5.801
		c-1.314-1.934-2.477-3.846-3.482-5.742c-1.004-1.893-1.895-3.811-2.666-5.742c-1.238-3.713-1.857-7.348-1.857-10.908
		c0-0.77,0.037-1.562,0.115-2.375s0.193-1.682,0.348-2.612c0.311-1.7,0.775-3.829,1.395-6.38c0.309-1.238,0.559-2.301,0.752-3.191
		c0.193-0.887,0.369-1.604,0.523-2.146c1.855-8.583,3.422-15.778,4.697-21.579c1.277-5.801,2.223-10.326,2.844-13.574
		c1.625-7.27,2.436-11.371,2.436-12.298c0-1.238-0.445-2.187-1.332-2.842c-0.891-0.657-1.953-0.989-3.191-0.989
		c-1.471,0-3.135,0.062-4.988,0.176c-1.859,0.115-3.91,0.329-6.15,0.636c-2.244,0.312-4.102,0.524-5.57,0.64
		c-1.469,0.115-2.551,0.173-3.246,0.173c-2.785,0-5.318-0.424-7.6-1.276c-2.281-0.85-4.254-2.069-5.916-3.652
		c-1.662-1.584-2.957-3.48-3.889-5.687c-0.924-2.203-1.391-4.697-1.391-7.482c2.166,0.311,4.393,0.521,6.672,0.636
		c2.279,0.116,4.658,0.173,7.135,0.173c1.084,0,2.727-0.057,4.932-0.173c2.203-0.115,4.967-0.325,8.295-0.636
		c3.4-0.311,6.32-0.542,8.76-0.698c2.436-0.155,4.424-0.233,5.971-0.233c1.855,0,3.906-2.86,6.15-8.586
		c1.082-2.938,2.105-5.913,3.072-8.931c0.969-3.016,1.838-6.149,2.613-9.398c0.85-3.249,1.564-6.128,2.145-8.643
		c0.58-2.512,1.064-4.66,1.453-6.44c0.152-0.46,0.5-2.163,1.041-5.104c0.387-1.546,0.719-2.995,0.988-4.348
		c0.271-1.354,0.482-2.573,0.639-3.655c0.541-2.938,1.139-5.646,1.795-8.123c0.656-2.474,1.412-4.717,2.264-6.728
		c1.699-4.021,4.447-6.034,8.238-6.034c5.723,0,8.586,3.171,8.586,9.513c0,3.946-0.854,8.471-2.553,13.575
		c-7.35,23.436-11.021,37.744-11.021,42.926c0,2.862,1.43,4.292,4.291,4.292c7.039,0,14.174-0.173,21.406-0.521
		c7.23-0.346,14.25-0.83,21.057-1.449c3.557-0.309,6.707-0.636,9.455-0.985c2.744-0.348,5.277-0.696,7.598-1.046
		c2.322-0.345,4.545-0.673,6.672-0.984c2.127-0.311,4.391-0.62,6.787-0.931c0.465-0.075,1.062-0.132,1.797-0.172
		c0.734-0.038,1.447,0.06,2.146,0.291c0.697,0.231,1.316,0.637,1.857,1.215C866.865,108.176,867.137,109.047,867.137,110.208"/>
	<path clip-path="url(#SVGID_2_)" fill="#404040" d="M968.041,112.99c0,8.355-0.969,16.129-2.9,23.32
		c-1.936,7.195-4.721,13.981-8.357,20.363c-3.633,6.382-8.121,12.454-13.455,18.214c-5.338,5.76-11.369,11.466-18.1,17.111
		c-2.551,2.091-5.434,4.139-8.643,6.149c-3.211,2.01-6.557,3.791-10.037,5.337c-3.48,1.546-6.979,2.802-10.498,3.77
		c-3.52,0.967-6.826,1.448-9.92,1.448c-2.242,0-4.061-0.25-5.451-0.752c-1.395-0.5-2.613-1.216-3.656-2.144
		c-1.045-0.93-2.029-2.031-2.957-3.309c-0.928-1.275-2.01-2.687-3.248-4.235c-1.781,5.259-3.211,9.669-4.293,13.226
		c-1.082,3.559-1.973,6.729-2.67,9.514c-0.695,2.781-1.238,5.432-1.623,7.947c-0.387,2.514-0.775,5.355-1.16,8.529
		c-0.387,3.168-0.871,6.938-1.449,11.311c-0.582,4.369-1.375,9.764-2.381,16.184c-0.154,1.234-0.576,2.668-1.275,4.291
		c-0.697,1.625-1.525,3.172-2.494,4.643c-0.967,1.467-2.01,2.705-3.133,3.715c-1.123,1.002-2.186,1.506-3.189,1.506
		c-1.082,0-2.398-0.334-3.945-0.986c-1.547-0.66-3.016-1.473-4.406-2.436c-1.395-0.971-2.592-1.957-3.598-2.961
		c-1.008-1.006-1.51-1.855-1.51-2.549c0-2.707,0.33-5.416,0.986-8.125c0.658-2.705,1.219-5.299,1.686-7.771
		c2.395-12.219,4.887-23.666,7.48-34.34c2.59-10.675,4.928-21.271,7.018-31.789c2.088-10.519,3.811-21.368,5.164-32.542
		c1.354-11.176,2.029-23.378,2.029-36.604c0-0.308-0.02-1.022-0.057-2.146c-0.039-1.12-0.057-2.318-0.057-3.594
		s-0.021-2.457-0.059-3.54c-0.039-1.083-0.059-1.818-0.059-2.207c0-2.552,0.33-5.063,0.986-7.54c0.656-2.474,1.6-4.697,2.84-6.67
		c1.238-1.97,2.686-3.574,4.352-4.813c1.664-1.239,3.502-1.857,5.512-1.857c0.85,0,1.701,0.447,2.553,1.333
		c0.85,0.89,1.621,2.088,2.318,3.597s1.256,3.307,1.682,5.395c0.428,2.088,0.639,4.331,0.639,6.728
		c0,4.023-0.232,8.626-0.695,13.808c-0.465,5.181-1.025,10.42-1.682,15.72c-0.656,5.299-1.334,10.345-2.031,15.14
		c-0.697,4.796-1.234,8.817-1.621,12.062c3.016-6.803,6.514-13.3,10.498-19.487c3.982-6.186,8.139-11.913,12.471-17.172
		c4.332-5.258,8.758-9.996,13.283-14.213c4.525-4.214,8.877-7.828,13.053-10.847c4.178-3.015,8.082-5.316,11.717-6.904
		c3.635-1.583,6.73-2.378,9.283-2.378c3.479,0,6.748,0.677,9.805,2.03c3.053,1.354,5.723,3.134,8.002,5.337
		c2.281,2.206,4.062,4.72,5.338,7.543C967.4,107.172,968.041,110.052,968.041,112.99 M949.014,123.781
		c0-3.403-0.389-6.148-1.16-8.237c-0.775-2.088-1.703-3.692-2.785-4.815c-1.084-1.121-2.225-1.875-3.422-2.261
		c-1.199-0.385-2.186-0.582-2.957-0.582c-3.098,0-6.656,1.375-10.678,4.118c-4.021,2.748-8.195,6.342-12.529,10.789
		c-4.33,4.448-8.66,9.496-12.992,15.141s-8.354,11.331-12.064,17.054c-0.93,1.472-2.148,3.445-3.658,5.918
		c-1.51,2.477-2.957,5.049-4.35,7.716c-1.395,2.667-2.592,5.201-3.596,7.598c-1.006,2.396-1.506,4.214-1.506,5.452
		c0,0.697,0.307,1.584,0.928,2.667c0.615,1.083,1.525,2.148,2.723,3.192c1.199,1.045,2.707,1.956,4.525,2.727
		c1.816,0.775,3.926,1.16,6.324,1.16c3.248,0,6.922-0.984,11.021-2.958c4.1-1.973,8.256-4.643,12.473-8.006
		c4.215-3.364,8.352-7.287,12.412-11.774c4.062-4.487,7.656-9.225,10.791-14.213c3.133-4.988,5.664-10.112,7.6-15.371
		C948.047,133.836,949.014,128.733,949.014,123.781"/>
</g>
<g>
	<path fill="#1197D4" d="M70.637,293.539c0.27,0.211,0.404,0.943,0.404,2.201c0,1.287-0.135,2.26-0.404,2.918l0.583,1.885
		c0.988,3.531,1.96,6.434,2.918,8.709c1.197,3.053,2.379,6.33,3.546,9.83c2.663,8.051,5.439,14.941,8.327,20.674
		c2.888,5.73,5.529,9.764,7.923,12.098c1.496,1.467,2.431,2.477,2.806,3.029c0.374,0.555,0.561,1.205,0.561,1.953
		c0,1.316-0.442,2.432-1.324,3.344c-0.883,0.914-1.938,1.369-3.165,1.369c-3.832,0-8.47-6.029-13.917-18.09
		c-2.185-4.76-3.501-7.139-3.95-7.139c-1.437,0-4.527,0.436-9.27,1.303c-4.744,0.867-9.076,1.885-12.996,3.053
		c-2.245,0.688-3.667,1.031-4.265,1.031c-0.749,0-1.526-0.373-2.334-1.121c-0.15-0.119-0.33-0.18-0.539-0.18
		c-0.659,0-2.081,1.945-4.265,5.836c-3.591,6.434-5.858,10.273-6.801,11.514c-0.943,1.242-1.983,1.863-3.12,1.863
		c-0.808,0-1.781-0.471-2.918-1.414c-1.138-0.943-1.706-1.908-1.706-2.895c0-0.959,0.539-2.252,1.616-3.885
		c1.078-1.629,3.277-4.914,6.599-9.854c5.925-8.768,10.923-16.998,14.994-24.689c6.434-12.24,10.519-19.461,12.255-21.66
		c1.735-2.199,3.067-3.299,3.995-3.299C68.168,291.924,69.65,292.463,70.637,293.539z M73.375,329.229
		c-1.048-2.395-2.589-6.779-4.624-13.154c-2.215-6.793-3.622-10.922-4.22-12.389c-1.646,3.471-4.19,8.395-7.631,14.77l-8.125,15.396
		c0.628-0.479,2.29-0.867,4.983-1.166c2.065-0.209,3.861-0.479,5.387-0.809C67.315,330.23,72.058,329.348,73.375,329.229z"/>
	<path fill="#1197D4" d="M128.027,347.498c0-1.945-2.395-4.158-7.182-6.643c-6.076-3.113-10.184-5.604-12.323-7.475
		c-2.14-1.871-3.209-3.957-3.209-6.262c0-5.955,2.985-10.895,8.956-14.814c5.97-3.92,10.841-5.881,14.612-5.881
		c2.424,0,4.182,0.42,5.275,1.256c1.092,0.838,1.638,2.291,1.638,4.355c0,0.928-0.397,1.721-1.189,2.379
		c-0.793,0.658-1.414,0.988-1.863,0.988c-0.33,0-0.973-0.225-1.931-0.674c-0.958-0.42-1.586-0.629-1.885-0.629
		c-1.497,0-4.534,1.094-9.113,3.277c-4.579,2.186-6.868,4.654-6.868,7.406c0,1.678,0.808,3.195,2.424,4.557
		c1.616,1.363,4.519,3.031,8.709,5.006c3.381,1.615,6.083,3.344,8.103,5.186c2.021,1.84,3.03,4.002,3.03,6.486
		c0,4.578-3.158,8.162-9.472,10.752c-6.315,2.588-12.345,3.883-18.091,3.883c-4.848,0-7.272-1.646-7.272-4.939
		c0-1.137,0.545-1.975,1.638-2.514c1.092-0.537,2.192-0.807,3.3-0.807c0.449,0,1.302,0.148,2.559,0.447
		c1.227,0.301,2.035,0.449,2.424,0.449c3.322,0,6.883-0.553,10.684-1.66C124.779,350.521,127.129,349.145,128.027,347.498z"/>
	<path fill="#1197D4" d="M167.037,347.498c0-1.945-2.395-4.158-7.182-6.643c-6.076-3.113-10.184-5.604-12.323-7.475
		c-2.14-1.871-3.209-3.957-3.209-6.262c0-5.955,2.985-10.895,8.956-14.814c5.97-3.92,10.841-5.881,14.612-5.881
		c2.424,0,4.182,0.42,5.275,1.256c1.092,0.838,1.638,2.291,1.638,4.355c0,0.928-0.397,1.721-1.189,2.379
		c-0.793,0.658-1.414,0.988-1.863,0.988c-0.33,0-0.973-0.225-1.931-0.674c-0.958-0.42-1.586-0.629-1.885-0.629
		c-1.497,0-4.534,1.094-9.113,3.277c-4.579,2.186-6.868,4.654-6.868,7.406c0,1.678,0.808,3.195,2.424,4.557
		c1.616,1.363,4.519,3.031,8.709,5.006c3.381,1.615,6.083,3.344,8.103,5.186c2.021,1.84,3.03,4.002,3.03,6.486
		c0,4.578-3.158,8.162-9.472,10.752c-6.315,2.588-12.345,3.883-18.091,3.883c-4.848,0-7.272-1.646-7.272-4.939
		c0-1.137,0.545-1.975,1.638-2.514c1.092-0.537,2.192-0.807,3.3-0.807c0.449,0,1.302,0.148,2.559,0.447
		c1.227,0.301,2.035,0.449,2.424,0.449c3.322,0,6.883-0.553,10.684-1.66C163.789,350.521,166.139,349.145,167.037,347.498z"/>
	<path fill="#1197D4" d="M221.894,342.561c0,3.053-2.701,6.734-8.103,11.043c-5.402,4.311-10.976,6.465-16.722,6.465
		c-4.819,0-8.537-1.422-11.155-4.266c-2.619-2.842-3.928-6.807-3.928-11.895c0-8.559,2.888-16.701,8.664-24.422
		c5.775-7.721,12.09-11.582,18.944-11.582c2.245,0,4.078,0.734,5.499,2.199c1.421,1.467,2.132,3.232,2.132,5.299
		c0,4.607-2.26,9.021-6.778,13.242c-4.519,4.219-10.565,8.365-18.136,12.436c-1.557,0.807-2.334,1.855-2.334,3.143
		c0,2.484,0.718,4.473,2.155,5.969c1.437,1.498,3.561,2.246,6.375,2.246c6.434,0,13.003-3.562,19.707-10.686
		c0.988-0.986,1.735-1.48,2.245-1.48C221.415,340.271,221.894,341.035,221.894,342.561z M190.694,335.559
		c12.689-7.543,19.034-13.604,19.034-18.182c0-1.795-0.808-2.693-2.424-2.693c-2.754,0-5.858,2.02-9.315,6.061
		C194.533,324.783,192.101,329.723,190.694,335.559z"/>
	<path fill="#1197D4" d="M253.855,347.498c0-1.945-2.395-4.158-7.182-6.643c-6.076-3.113-10.184-5.604-12.323-7.475
		c-2.14-1.871-3.209-3.957-3.209-6.262c0-5.955,2.985-10.895,8.956-14.814c5.97-3.92,10.841-5.881,14.612-5.881
		c2.424,0,4.182,0.42,5.275,1.256c1.092,0.838,1.638,2.291,1.638,4.355c0,0.928-0.397,1.721-1.189,2.379
		c-0.793,0.658-1.414,0.988-1.863,0.988c-0.33,0-0.973-0.225-1.931-0.674c-0.958-0.42-1.586-0.629-1.885-0.629
		c-1.497,0-4.534,1.094-9.113,3.277c-4.579,2.186-6.868,4.654-6.868,7.406c0,1.678,0.808,3.195,2.424,4.557
		c1.616,1.363,4.519,3.031,8.709,5.006c3.381,1.615,6.083,3.344,8.103,5.186c2.021,1.84,3.03,4.002,3.03,6.486
		c0,4.578-3.158,8.162-9.472,10.752c-6.315,2.588-12.345,3.883-18.091,3.883c-4.848,0-7.272-1.646-7.272-4.939
		c0-1.137,0.545-1.975,1.638-2.514c1.092-0.537,2.192-0.807,3.3-0.807c0.449,0,1.302,0.148,2.559,0.447
		c1.227,0.301,2.035,0.449,2.424,0.449c3.322,0,6.883-0.553,10.684-1.66C250.608,350.521,252.958,349.145,253.855,347.498z"/>
	<path fill="#1197D4" d="M292.865,347.498c0-1.945-2.395-4.158-7.182-6.643c-6.076-3.113-10.184-5.604-12.323-7.475
		c-2.14-1.871-3.209-3.957-3.209-6.262c0-5.955,2.985-10.895,8.956-14.814c5.97-3.92,10.841-5.881,14.612-5.881
		c2.424,0,4.182,0.42,5.275,1.256c1.092,0.838,1.638,2.291,1.638,4.355c0,0.928-0.397,1.721-1.189,2.379
		c-0.793,0.658-1.414,0.988-1.863,0.988c-0.33,0-0.973-0.225-1.931-0.674c-0.958-0.42-1.586-0.629-1.885-0.629
		c-1.497,0-4.534,1.094-9.113,3.277c-4.579,2.186-6.868,4.654-6.868,7.406c0,1.678,0.808,3.195,2.424,4.557
		c1.616,1.363,4.519,3.031,8.709,5.006c3.381,1.615,6.083,3.344,8.103,5.186c2.021,1.84,3.03,4.002,3.03,6.486
		c0,4.578-3.158,8.162-9.472,10.752c-6.315,2.588-12.345,3.883-18.091,3.883c-4.848,0-7.272-1.646-7.272-4.939
		c0-1.137,0.545-1.975,1.638-2.514c1.092-0.537,2.192-0.807,3.3-0.807c0.449,0,1.302,0.148,2.559,0.447
		c1.227,0.301,2.035,0.449,2.424,0.449c3.322,0,6.883-0.553,10.684-1.66C289.618,350.521,291.968,349.145,292.865,347.498z"/>
	<path fill="#1197D4" d="M347.722,342.561c0,3.053-2.701,6.734-8.103,11.043c-5.402,4.311-10.976,6.465-16.722,6.465
		c-4.819,0-8.537-1.422-11.155-4.266c-2.619-2.842-3.928-6.807-3.928-11.895c0-8.559,2.888-16.701,8.664-24.422
		c5.775-7.721,12.09-11.582,18.944-11.582c2.245,0,4.078,0.734,5.499,2.199c1.421,1.467,2.132,3.232,2.132,5.299
		c0,4.607-2.26,9.021-6.778,13.242c-4.519,4.219-10.565,8.365-18.136,12.436c-1.557,0.807-2.334,1.855-2.334,3.143
		c0,2.484,0.718,4.473,2.155,5.969c1.437,1.498,3.561,2.246,6.375,2.246c6.434,0,13.003-3.562,19.707-10.686
		c0.988-0.986,1.735-1.48,2.245-1.48C347.243,340.271,347.722,341.035,347.722,342.561z M316.522,335.559
		c12.689-7.543,19.034-13.604,19.034-18.182c0-1.795-0.808-2.693-2.424-2.693c-2.754,0-5.858,2.02-9.315,6.061
		C320.361,324.783,317.929,329.723,316.522,335.559z"/>
	<path fill="#1197D4" d="M389.291,339.193c-4.011,6.436-8.26,11.396-12.749,14.883c-4.489,3.486-8.619,5.229-12.39,5.229
		c-2.903,0-5.2-1.115-6.891-3.344c-1.691-2.229-2.536-5.199-2.536-8.91c0-7.572,3.075-15.338,9.225-23.299
		s12.786-11.941,19.909-11.941c3.112,0,6,1.332,8.664,3.994l6.285-29.357c0.449-2.006,1.279-3.352,2.492-4.041
		c1.212-0.688,2.162-1.031,2.85-1.031c2.095,0,3.143,1.855,3.143,5.566c0,0.658-0.689,3.111-2.065,7.361
		c-2.185,6.584-4.258,14.672-6.217,24.264c-1.96,9.592-2.94,17.291-2.94,23.096c0,5.986,1.302,8.979,3.905,8.979
		c1.676,0,3.412-0.553,5.208-1.66c0.748-0.539,1.451-0.809,2.11-0.809c0.958,0,1.437,0.629,1.437,1.885
		c0,1.527-1.34,3.293-4.018,5.299c-2.679,2.004-5.425,3.008-8.238,3.008c-4.938,0-7.407-4.76-7.407-14.275
		C389.066,342.471,389.14,340.84,389.291,339.193z M383.41,318.186c-4.848,0-9.651,3.283-14.41,9.854
		c-4.759,6.568-7.138,12.637-7.138,18.203c0,3.74,1.241,5.611,3.726,5.611c2.334,0,5.169-1.227,8.507-3.682
		c3.337-2.453,6.771-6.367,10.303-11.738c3.531-5.371,5.297-9.404,5.297-12.1c0-1.316-0.606-2.67-1.818-4.062
		C386.664,318.881,385.175,318.186,383.41,318.186z"/>
	<path fill="#1197D4" d="M450.476,303.191c-0.33-0.598-0.494-1.348-0.494-2.244c0-1.348,0.486-2.26,1.459-2.738
		c0.972-0.479,3.883-0.748,8.731-0.809c5.955-0.029,11.305-0.246,16.048-0.65c4.743-0.404,12.053-1.279,21.929-2.627
		c3.74-0.508,7.302-0.764,10.684-0.764c1.706,0,3.329,0.105,4.871,0.314c1.541,0.211,2.633,0.412,3.277,0.607
		c0.643,0.193,1.158,0.732,1.549,1.615c0.388,0.883,0.583,1.564,0.583,2.043c0,2.125-0.749,3.188-2.245,3.188
		c-0.987,0-2.334-0.09-4.039-0.27c-1.736-0.15-4.086-0.225-7.049-0.225c-3.053,0-6.756,0.217-11.11,0.65
		c-4.354,0.434-6.771,1.145-7.25,2.133c-0.479,0.986-1.265,6.822-2.357,17.508c-1.093,10.684-1.638,18.645-1.638,23.881
		c0,2.424,0.374,5.223,1.122,8.395c0.119,0.6,0.18,0.959,0.18,1.078c0,1.316-0.359,2.508-1.078,3.568
		c-0.718,1.062-1.586,1.594-2.604,1.594c-1.557,0-2.851-0.748-3.883-2.244c-1.032-1.496-1.548-5.686-1.548-12.57
		c0-6.523,1.241-19.258,3.726-38.201c0.12-1.018,0.18-1.541,0.18-1.572c0-1.016-0.554-1.525-1.661-1.525
		c-1.795,0-5.223,0.225-10.28,0.674c-5.058,0.479-8.664,0.717-10.819,0.717C453.529,304.717,451.434,304.209,450.476,303.191z"/>
	<path fill="#1197D4" d="M542.264,341.438c-4.189,5.627-8.334,9.848-12.434,12.66c-4.102,2.814-7.856,4.221-11.268,4.221
		c-2.305,0-4.295-0.973-5.971-2.918c-1.677-1.945-2.514-4.445-2.514-7.498c0-7.871,3.516-16.348,10.549-25.43
		c7.033-9.084,14.021-13.625,20.965-13.625c2.514,0,4.383,1.436,5.611,4.309c0.389,0.959,1.002,1.438,1.84,1.438
		c2.395,0,3.592,0.928,3.592,2.783c0,0.928-0.15,2.199-0.449,3.816c-1.617,8.828-2.424,15.053-2.424,18.674
		c0,7.242,1.375,11.582,4.129,13.018c1.316,0.719,1.977,1.602,1.977,2.65c0,0.928-0.645,1.861-1.932,2.805s-2.529,1.414-3.725,1.414
		c-2.307,0-4.205-1.586-5.701-4.758C543.012,351.824,542.264,347.305,542.264,341.438z M539.525,316.164
		c-3.949,0-8.545,3.705-13.781,11.111s-7.855,13.551-7.855,18.428c0,3.441,1.137,5.162,3.412,5.162
		c3.291,0,7.855-3.322,13.691-9.965c5.836-6.645,8.754-12.75,8.754-18.316C543.746,318.305,542.338,316.164,539.525,316.164z"/>
	<path fill="#1197D4" d="M581.678,281.777c2.154,0,3.232,1.377,3.232,4.131c0,2.455-1.303,8.291-3.906,17.508
		c-1.646,5.807-2.918,12.211-3.814,19.213c-0.898,7.004-1.348,12.496-1.348,16.475c0,4.939,0.314,9.848,0.943,14.725
		c0.119,0.928,0.18,1.602,0.18,2.02c0,1.498-0.51,2.783-1.527,3.861s-2.094,1.617-3.232,1.617c-1.586,0-2.686-0.988-3.299-2.963
		c-0.613-1.977-0.92-5.164-0.92-9.562c0-10.025,1.205-22.445,3.613-37.26s4.324-23.479,5.746-25.992
		S580.211,281.777,581.678,281.777z"/>
	<path fill="#1197D4" d="M630.699,342.561c0,3.053-2.701,6.734-8.104,11.043c-5.402,4.311-10.975,6.465-16.721,6.465
		c-4.818,0-8.537-1.422-11.156-4.266c-2.619-2.842-3.928-6.807-3.928-11.895c0-8.559,2.889-16.701,8.664-24.422
		s12.09-11.582,18.943-11.582c2.246,0,4.078,0.734,5.5,2.199c1.42,1.467,2.133,3.232,2.133,5.299c0,4.607-2.26,9.021-6.779,13.242
		c-4.52,4.219-10.564,8.365-18.137,12.436c-1.555,0.807-2.334,1.855-2.334,3.143c0,2.484,0.719,4.473,2.156,5.969
		c1.436,1.498,3.561,2.246,6.373,2.246c6.436,0,13.004-3.562,19.707-10.686c0.988-0.986,1.736-1.48,2.244-1.48
		C630.221,340.271,630.699,341.035,630.699,342.561z M599.5,335.559c12.689-7.543,19.033-13.604,19.033-18.182
		c0-1.795-0.807-2.693-2.424-2.693c-2.754,0-5.857,2.02-9.314,6.061C603.338,324.783,600.906,329.723,599.5,335.559z"/>
	<path fill="#1197D4" d="M670.652,323.258c-1.557,0-3.256,1.018-5.096,3.053s-4.646,6.598-8.416,13.691
		c-4.969,9.518-8.178,14.934-9.631,16.25c-1.451,1.318-2.656,1.977-3.613,1.977c-3.531,0-5.297-1.707-5.297-5.119
		c0-1.436,0.24-3.471,0.719-6.104c1.645-9.039,2.469-18.57,2.469-28.596c0-1.139,0.486-2.402,1.459-3.795
		c0.973-1.391,1.893-2.086,2.762-2.086c1.555,0,2.662,0.479,3.32,1.436c0.658,0.959,0.988,2.889,0.988,5.791
		c0,3.023-0.898,9.248-2.693,18.676c-0.6,3.111-0.898,5.088-0.898,5.924c0,0.48,0.119,0.719,0.359,0.719
		c0.449,0,2.529-3.576,6.24-10.729c3.74-7.271,7.018-12.391,9.83-15.354c2.814-2.963,5.91-4.443,9.293-4.443
		c2.693,0,4.885,1.227,6.576,3.682c1.691,2.453,2.926,6.928,3.703,13.422c0.838,7.393,1.594,11.994,2.268,13.805
		s1.744,2.715,3.209,2.715c0.928,0,2.096-0.328,3.502-0.988c0.24-0.119,0.42-0.178,0.539-0.178c1.287,0,1.93,0.748,1.93,2.244
		c0,1.316-0.883,2.715-2.648,4.197c-1.766,1.48-3.891,2.221-6.373,2.221c-2.545,0-4.512-1.01-5.904-3.029
		c-1.391-2.02-2.49-7.414-3.299-16.184C675.111,327.656,673.346,323.258,670.652,323.258z"/>
	<path fill="#1197D4" d="M719.312,312.484c3.082-0.24,5.986-0.523,8.709-0.854c2.693-0.299,4.938-0.449,6.734-0.449
		c2.273,0,3.709,0.209,4.309,0.629c0.598,0.42,0.898,1.152,0.898,2.199c0,2.424-1.691,3.742-5.072,3.951
		c-4.34,0.27-8.336,0.643-11.986,1.121c-3.652,0.48-5.619,0.877-5.904,1.189c-0.283,0.314-1.189,3.877-2.715,10.686
		c-1.527,6.809-2.289,11.23-2.289,13.266c0,3.291,0.434,5.484,1.301,6.576s2.17,1.639,3.906,1.639c2.574,0,6.15-1.932,10.729-5.791
		c1.766-1.586,3.127-2.381,4.086-2.381c1.285,0,1.93,0.689,1.93,2.066c0,2.154-2.072,4.945-6.217,8.371
		c-4.146,3.428-8.389,5.141-12.727,5.141c-7.244,0-10.863-4.264-10.863-12.793c0-3.082,0.746-7.857,2.244-14.32
		c1.465-6.436,2.199-10.295,2.199-11.582c0-0.449-0.359-0.674-1.078-0.674l-4.668,0.404c-3.832,0-5.746-1.527-5.746-4.58
		c0-1.734,0.883-2.604,2.648-2.604h9.248c0.629,0,1.182-0.283,1.66-0.852s1.182-2.477,2.109-5.725
		c0.928-3.246,1.752-6.457,2.471-9.629c0.717-3.143,2.123-4.713,4.219-4.713c1.287,0,2.289,0.447,3.008,1.346
		s1.078,1.736,1.078,2.514c0,0.42-0.539,2.559-1.617,6.42L719.312,312.484z"/>
	<path fill="#1197D4" d="M788.131,304.492c-1.707-0.598-2.561-2.139-2.561-4.623c0-1.945,3.959-3.838,11.875-5.678
		c7.914-1.842,14.82-2.762,20.717-2.762c6.523,0,11.701,1.348,15.531,4.041c3.832,2.693,5.746,6.27,5.746,10.729
		c0,6.613-3.643,12.539-10.93,17.777c-7.289,5.236-17.111,9.082-29.471,11.537c-3.264,0.658-5.096,1.205-5.5,1.637
		c-0.404,0.436-0.719,3.098-0.943,7.992c-0.223,4.893-0.336,8.297-0.336,10.213c0,1.346-0.426,2.559-1.279,3.635
		c-0.854,1.078-1.848,1.617-2.984,1.617c-2.635,0-3.951-1.781-3.951-5.342c0-1.945,0.539-7.363,1.615-16.252l3.188-26.619
		c0.09-0.449,0.113-1.736,0.068-3.861S788.607,305.062,788.131,304.492z M797.467,301.934c-0.209,0.869-0.42,2.469-0.629,4.805
		c-0.418,4.16-0.941,8.754-1.57,13.781c-0.33,2.633-0.645,5.492-0.943,8.574c9.846-1.348,18.586-4.1,26.217-8.26
		s11.447-8.725,11.447-13.691c0-6.105-4.729-9.158-14.186-9.158C811.607,297.984,804.83,299.301,797.467,301.934z"/>
	<path fill="#1197D4" d="M856.762,360.023c-4.1,0-7.482-1.557-10.145-4.668c-2.664-3.113-3.996-6.959-3.996-11.537
		c0-7.723,2.596-15.33,7.789-22.828c5.191-7.496,11.408-11.244,18.652-11.244c4.787,0,8.67,1.84,11.648,5.521
		c2.977,3.68,4.467,8.064,4.467,13.152c0,7.781-3.076,14.994-9.225,21.637C869.803,356.701,863.406,360.023,856.762,360.023z
		 M850.521,342.65c0,3.023,0.637,5.492,1.908,7.406c1.271,1.916,2.955,2.873,5.051,2.873c4.459,0,8.934-2.445,13.422-7.338
		c4.488-4.895,6.734-10.332,6.734-16.318c0-3.682-0.861-6.666-2.582-8.957c-1.721-2.289-4.033-3.434-6.936-3.434
		c-4.818,0-8.955,2.955-12.412,8.865C852.25,331.66,850.521,337.293,850.521,342.65z"/>
	<path fill="#1197D4" d="M908.744,360.023c-4.1,0-7.482-1.557-10.145-4.668c-2.664-3.113-3.996-6.959-3.996-11.537
		c0-7.723,2.596-15.33,7.789-22.828c5.191-7.496,11.408-11.244,18.652-11.244c4.787,0,8.67,1.84,11.648,5.521
		c2.977,3.68,4.467,8.064,4.467,13.152c0,7.781-3.076,14.994-9.225,21.637C921.785,356.701,915.389,360.023,908.744,360.023z
		 M902.504,342.65c0,3.023,0.637,5.492,1.908,7.406c1.271,1.916,2.955,2.873,5.051,2.873c4.459,0,8.934-2.445,13.422-7.338
		c4.488-4.895,6.734-10.332,6.734-16.318c0-3.682-0.861-6.666-2.582-8.957c-1.721-2.289-4.033-3.434-6.936-3.434
		c-4.818,0-8.955,2.955-12.412,8.865C904.232,331.66,902.504,337.293,902.504,342.65z"/>
	<path fill="#1197D4" d="M963.332,281.777c2.154,0,3.232,1.377,3.232,4.131c0,2.455-1.303,8.291-3.906,17.508
		c-1.646,5.807-2.918,12.211-3.814,19.213c-0.898,7.004-1.348,12.496-1.348,16.475c0,4.939,0.314,9.848,0.943,14.725
		c0.119,0.928,0.18,1.602,0.18,2.02c0,1.498-0.51,2.783-1.527,3.861s-2.094,1.617-3.232,1.617c-1.586,0-2.686-0.988-3.299-2.963
		c-0.613-1.977-0.92-5.164-0.92-9.562c0-10.025,1.205-22.445,3.613-37.26s4.324-23.479,5.746-25.992
		S961.865,281.777,963.332,281.777z"/>
</g>
</svg>
